<mxfile host="app.diagrams.net" modified="2020-07-23T18:37:13.190Z" agent="5.0 (Macintosh; Intel Mac OS X 10_15_6) AppleWebKit/605.1.15 (KHTML, like Gecko) Version/13.1.2 Safari/605.1.15" etag="4r-4zX5HMF4cnu5CNs2Q" version="13.5.1" type="github">
  <diagram id="oFNyKdWQi2JhRlYzADXe" name="Page-1">
    <mxGraphModel dx="1229" dy="1074" grid="1" gridSize="10" guides="1" tooltips="1" connect="1" arrows="1" fold="1" page="1" pageScale="1" pageWidth="827" pageHeight="1169" math="0" shadow="0">
      <root>
        <mxCell id="0" />
        <mxCell id="1" parent="0" />
        <mxCell id="n-PW7voA_0DJlgTC3CXf-7" style="edgeStyle=orthogonalEdgeStyle;rounded=0;orthogonalLoop=1;jettySize=auto;html=1;entryX=0.5;entryY=0;entryDx=0;entryDy=0;" edge="1" parent="1" source="n-PW7voA_0DJlgTC3CXf-2" target="n-PW7voA_0DJlgTC3CXf-4">
          <mxGeometry relative="1" as="geometry" />
        </mxCell>
        <mxCell id="n-PW7voA_0DJlgTC3CXf-2" value="Start" style="ellipse;shape=doubleEllipse;html=1;dashed=0;whitespace=wrap;aspect=fixed;" vertex="1" parent="1">
          <mxGeometry x="330" y="100" width="60" height="60" as="geometry" />
        </mxCell>
        <mxCell id="n-PW7voA_0DJlgTC3CXf-3" value="SMS Sent &lt;br&gt;" style="strokeWidth=1;shadow=0;dashed=0;align=center;html=1;shape=mxgraph.mockup.text.callout;linkText=;textSize=17;textColor=#666666;callDir=NE;callStyle=line;fontSize=17;fontColor=#666666;align=right;verticalAlign=top;strokeColor=#666666;" vertex="1" parent="1">
          <mxGeometry x="390" y="20" width="200" height="100" as="geometry" />
        </mxCell>
        <mxCell id="n-PW7voA_0DJlgTC3CXf-8" style="edgeStyle=orthogonalEdgeStyle;rounded=0;orthogonalLoop=1;jettySize=auto;html=1;" edge="1" parent="1" source="n-PW7voA_0DJlgTC3CXf-4" target="n-PW7voA_0DJlgTC3CXf-5">
          <mxGeometry relative="1" as="geometry" />
        </mxCell>
        <mxCell id="n-PW7voA_0DJlgTC3CXf-4" value="Incoming SMS" style="rounded=1;whiteSpace=wrap;html=1;" vertex="1" parent="1">
          <mxGeometry x="300" y="200" width="120" height="60" as="geometry" />
        </mxCell>
        <mxCell id="n-PW7voA_0DJlgTC3CXf-5" value="Studio Flow" style="swimlane;" vertex="1" parent="1">
          <mxGeometry x="235" y="320" width="250" height="250" as="geometry" />
        </mxCell>
        <mxCell id="n-PW7voA_0DJlgTC3CXf-11" value="Flex" style="rounded=1;whiteSpace=wrap;html=1;" vertex="1" parent="n-PW7voA_0DJlgTC3CXf-5">
          <mxGeometry x="64" y="160" width="120" height="60" as="geometry" />
        </mxCell>
        <mxCell id="n-PW7voA_0DJlgTC3CXf-13" style="edgeStyle=orthogonalEdgeStyle;rounded=0;orthogonalLoop=1;jettySize=auto;html=1;entryX=0.5;entryY=0;entryDx=0;entryDy=0;" edge="1" parent="n-PW7voA_0DJlgTC3CXf-5" source="n-PW7voA_0DJlgTC3CXf-12" target="n-PW7voA_0DJlgTC3CXf-11">
          <mxGeometry relative="1" as="geometry" />
        </mxCell>
        <mxCell id="n-PW7voA_0DJlgTC3CXf-12" value="Lead Qualifier" style="rounded=1;whiteSpace=wrap;html=1;" vertex="1" parent="n-PW7voA_0DJlgTC3CXf-5">
          <mxGeometry x="64" y="40" width="120" height="60" as="geometry" />
        </mxCell>
        <mxCell id="n-PW7voA_0DJlgTC3CXf-9" value="&quot;OK&quot;" style="strokeWidth=1;shadow=0;dashed=0;align=center;html=1;shape=mxgraph.mockup.text.callout;linkText=;textSize=17;textColor=#666666;callDir=NE;callStyle=line;fontSize=17;fontColor=#666666;align=right;verticalAlign=top;strokeColor=#666666;" vertex="1" parent="1">
          <mxGeometry x="420" y="130" width="200" height="100" as="geometry" />
        </mxCell>
        <mxCell id="n-PW7voA_0DJlgTC3CXf-14" value="Lead Qualifier Bot" style="swimlane;" vertex="1" parent="1">
          <mxGeometry x="139" y="660" width="550" height="610" as="geometry" />
        </mxCell>
        <mxCell id="n-PW7voA_0DJlgTC3CXf-27" style="edgeStyle=orthogonalEdgeStyle;rounded=0;orthogonalLoop=1;jettySize=auto;html=1;" edge="1" parent="n-PW7voA_0DJlgTC3CXf-14" source="n-PW7voA_0DJlgTC3CXf-17" target="n-PW7voA_0DJlgTC3CXf-24">
          <mxGeometry relative="1" as="geometry" />
        </mxCell>
        <mxCell id="n-PW7voA_0DJlgTC3CXf-17" value="Preamble" style="rounded=1;whiteSpace=wrap;html=1;" vertex="1" parent="n-PW7voA_0DJlgTC3CXf-14">
          <mxGeometry x="236" y="210" width="120" height="60" as="geometry" />
        </mxCell>
        <mxCell id="n-PW7voA_0DJlgTC3CXf-22" style="edgeStyle=orthogonalEdgeStyle;rounded=0;orthogonalLoop=1;jettySize=auto;html=1;" edge="1" parent="n-PW7voA_0DJlgTC3CXf-14" source="n-PW7voA_0DJlgTC3CXf-10" target="n-PW7voA_0DJlgTC3CXf-17">
          <mxGeometry relative="1" as="geometry" />
        </mxCell>
        <mxCell id="n-PW7voA_0DJlgTC3CXf-23" value="&quot;OK&quot;" style="edgeLabel;html=1;align=center;verticalAlign=middle;resizable=0;points=[];" vertex="1" connectable="0" parent="n-PW7voA_0DJlgTC3CXf-22">
          <mxGeometry x="0.25" y="2" relative="1" as="geometry">
            <mxPoint x="10" y="-8" as="offset" />
          </mxGeometry>
        </mxCell>
        <mxCell id="n-PW7voA_0DJlgTC3CXf-31" value="Anything else..." style="edgeStyle=orthogonalEdgeStyle;rounded=0;orthogonalLoop=1;jettySize=auto;html=1;" edge="1" parent="n-PW7voA_0DJlgTC3CXf-14" source="n-PW7voA_0DJlgTC3CXf-10" target="n-PW7voA_0DJlgTC3CXf-29">
          <mxGeometry relative="1" as="geometry" />
        </mxCell>
        <mxCell id="n-PW7voA_0DJlgTC3CXf-34" value="&quot;Wrong Number&quot;" style="edgeStyle=orthogonalEdgeStyle;rounded=0;orthogonalLoop=1;jettySize=auto;html=1;entryX=0;entryY=0.5;entryDx=0;entryDy=0;" edge="1" parent="n-PW7voA_0DJlgTC3CXf-14" source="n-PW7voA_0DJlgTC3CXf-10" target="n-PW7voA_0DJlgTC3CXf-33">
          <mxGeometry relative="1" as="geometry" />
        </mxCell>
        <mxCell id="n-PW7voA_0DJlgTC3CXf-10" value="Task query on response" style="strokeWidth=2;html=1;shape=mxgraph.flowchart.decision;whiteSpace=wrap;" vertex="1" parent="n-PW7voA_0DJlgTC3CXf-14">
          <mxGeometry x="40" y="190" width="100" height="100" as="geometry" />
        </mxCell>
        <mxCell id="n-PW7voA_0DJlgTC3CXf-20" style="edgeStyle=orthogonalEdgeStyle;rounded=0;orthogonalLoop=1;jettySize=auto;html=1;entryX=0.5;entryY=0;entryDx=0;entryDy=0;entryPerimeter=0;" edge="1" parent="n-PW7voA_0DJlgTC3CXf-14" source="n-PW7voA_0DJlgTC3CXf-19" target="n-PW7voA_0DJlgTC3CXf-10">
          <mxGeometry relative="1" as="geometry" />
        </mxCell>
        <mxCell id="n-PW7voA_0DJlgTC3CXf-19" value="Placeholder... Why are they here? Hard code to CARES Act" style="rounded=1;whiteSpace=wrap;html=1;" vertex="1" parent="n-PW7voA_0DJlgTC3CXf-14">
          <mxGeometry x="30" y="40" width="120" height="60" as="geometry" />
        </mxCell>
        <mxCell id="n-PW7voA_0DJlgTC3CXf-25" style="edgeStyle=orthogonalEdgeStyle;rounded=0;orthogonalLoop=1;jettySize=auto;html=1;" edge="1" parent="n-PW7voA_0DJlgTC3CXf-14" source="n-PW7voA_0DJlgTC3CXf-24" target="n-PW7voA_0DJlgTC3CXf-10">
          <mxGeometry relative="1" as="geometry">
            <Array as="points">
              <mxPoint x="470" y="130" />
              <mxPoint x="90" y="130" />
            </Array>
          </mxGeometry>
        </mxCell>
        <mxCell id="n-PW7voA_0DJlgTC3CXf-28" value="Query response" style="edgeLabel;html=1;align=center;verticalAlign=middle;resizable=0;points=[];" vertex="1" connectable="0" parent="n-PW7voA_0DJlgTC3CXf-25">
          <mxGeometry x="-0.1385" y="1" relative="1" as="geometry">
            <mxPoint as="offset" />
          </mxGeometry>
        </mxCell>
        <mxCell id="n-PW7voA_0DJlgTC3CXf-24" value="Ask &amp;nbsp;what next?" style="rounded=1;whiteSpace=wrap;html=1;" vertex="1" parent="n-PW7voA_0DJlgTC3CXf-14">
          <mxGeometry x="410" y="210" width="120" height="60" as="geometry" />
        </mxCell>
        <mxCell id="n-PW7voA_0DJlgTC3CXf-37" style="edgeStyle=orthogonalEdgeStyle;rounded=0;orthogonalLoop=1;jettySize=auto;html=1;" edge="1" parent="n-PW7voA_0DJlgTC3CXf-14" source="n-PW7voA_0DJlgTC3CXf-29" target="n-PW7voA_0DJlgTC3CXf-36">
          <mxGeometry relative="1" as="geometry" />
        </mxCell>
        <mxCell id="n-PW7voA_0DJlgTC3CXf-38" value="No" style="edgeLabel;html=1;align=center;verticalAlign=middle;resizable=0;points=[];" vertex="1" connectable="0" parent="n-PW7voA_0DJlgTC3CXf-37">
          <mxGeometry x="0.2083" y="1" relative="1" as="geometry">
            <mxPoint as="offset" />
          </mxGeometry>
        </mxCell>
        <mxCell id="n-PW7voA_0DJlgTC3CXf-29" value="Agent &lt;br&gt;Available?" style="strokeWidth=2;html=1;shape=mxgraph.flowchart.decision;whiteSpace=wrap;" vertex="1" parent="n-PW7voA_0DJlgTC3CXf-14">
          <mxGeometry x="40" y="380" width="100" height="100" as="geometry" />
        </mxCell>
        <mxCell id="n-PW7voA_0DJlgTC3CXf-33" value="&quot;You&#39;ve been removed&quot;" style="rounded=1;whiteSpace=wrap;html=1;" vertex="1" parent="n-PW7voA_0DJlgTC3CXf-14">
          <mxGeometry x="236" y="300" width="120" height="60" as="geometry" />
        </mxCell>
        <mxCell id="n-PW7voA_0DJlgTC3CXf-36" value="&quot;Call back later&quot;" style="rounded=1;whiteSpace=wrap;html=1;" vertex="1" parent="n-PW7voA_0DJlgTC3CXf-14">
          <mxGeometry x="236" y="400" width="120" height="60" as="geometry" />
        </mxCell>
        <mxCell id="n-PW7voA_0DJlgTC3CXf-41" value="End Bot, go to After Hours Bot" style="text;html=1;strokeColor=none;fillColor=none;align=center;verticalAlign=middle;whiteSpace=wrap;rounded=0;" vertex="1" parent="n-PW7voA_0DJlgTC3CXf-14">
          <mxGeometry x="198.5" y="460" width="195" height="20" as="geometry" />
        </mxCell>
        <mxCell id="n-PW7voA_0DJlgTC3CXf-15" value="End Bot, go to Flex" style="rounded=1;whiteSpace=wrap;html=1;" vertex="1" parent="n-PW7voA_0DJlgTC3CXf-14">
          <mxGeometry x="30" y="540" width="120" height="60" as="geometry" />
        </mxCell>
        <mxCell id="n-PW7voA_0DJlgTC3CXf-30" style="edgeStyle=orthogonalEdgeStyle;rounded=0;orthogonalLoop=1;jettySize=auto;html=1;entryX=0.5;entryY=0;entryDx=0;entryDy=0;" edge="1" parent="n-PW7voA_0DJlgTC3CXf-14" source="n-PW7voA_0DJlgTC3CXf-29" target="n-PW7voA_0DJlgTC3CXf-15">
          <mxGeometry relative="1" as="geometry" />
        </mxCell>
        <mxCell id="n-PW7voA_0DJlgTC3CXf-32" value="Yes" style="edgeLabel;html=1;align=center;verticalAlign=middle;resizable=0;points=[];" vertex="1" connectable="0" parent="n-PW7voA_0DJlgTC3CXf-30">
          <mxGeometry x="-0.12" y="2" relative="1" as="geometry">
            <mxPoint as="offset" />
          </mxGeometry>
        </mxCell>
        <mxCell id="n-PW7voA_0DJlgTC3CXf-18" value="Canned Preamble" style="strokeWidth=1;shadow=0;dashed=0;align=center;html=1;shape=mxgraph.mockup.text.callout;linkText=;textSize=17;textColor=#666666;callDir=NE;callStyle=line;fontSize=17;fontColor=#666666;align=right;verticalAlign=top;strokeColor=#666666;" vertex="1" parent="1">
          <mxGeometry x="420" y="290" width="200" height="100" as="geometry" />
        </mxCell>
        <mxCell id="n-PW7voA_0DJlgTC3CXf-40" value="&quot;I&#39;m ..., What&#39;s your DOB?&quot;" style="strokeWidth=1;shadow=0;dashed=0;align=center;html=1;shape=mxgraph.mockup.text.callout;linkText=;textSize=17;textColor=#666666;callDir=NE;callStyle=line;fontSize=17;fontColor=#666666;align=right;verticalAlign=top;strokeColor=#666666;" vertex="1" parent="1">
          <mxGeometry x="420" y="410" width="200" height="100" as="geometry" />
        </mxCell>
      </root>
    </mxGraphModel>
  </diagram>
</mxfile>
